<svg xmlns="http://www.w3.org/2000/svg" version="1.1" xmlns:xlink="http://www.w3.org/1999/xlink" xmlns:svgjs="http://svgjs.dev/svgjs" width="1000" height="625" viewBox="0 0 1000 625"><g transform="matrix(1,0,0,1,0,0)"><svg viewBox="0 0 512 320" data-background-color="#111111" preserveAspectRatio="xMidYMid meet" height="625" width="1000" xmlns="http://www.w3.org/2000/svg" xmlns:xlink="http://www.w3.org/1999/xlink"><g id="tight-bounds" transform="matrix(1,0,0,1,0,0)"><svg viewBox="0 0 512 320" height="320" width="512"><g><svg></svg></g><g><svg viewBox="0 0 512 320" height="320" width="512"><g><path d="M96 160c0-88.366 71.634-160 160-160 88.366 0 160 71.634 160 160 0 88.366-71.634 160-160 160-88.366 0-160-71.634-160-160zM256 291.142c72.428 0 131.142-58.714 131.142-131.142 0-72.428-58.714-131.142-131.142-131.142-72.428 0-131.142 58.714-131.142 131.142 0 72.428 58.714 131.142 131.142 131.142z" fill="#ffffff" fill-rule="nonzero" stroke="none" stroke-width="1" stroke-linecap="butt" stroke-linejoin="miter" stroke-miterlimit="10" stroke-dasharray="" stroke-dashoffset="0" font-family="none" font-weight="none" font-size="none" text-anchor="none" style="mix-blend-mode: normal" data-fill-palette-color="tertiary"></path></g><g transform="matrix(1,0,0,1,149.83502170767005,80)"><svg viewBox="0 0 212.3299565846599 160" height="160" width="212.3299565846599"><g><svg viewBox="0 0 212.3299565846599 160" height="160" width="212.3299565846599"><g><svg viewBox="0 0 212.3299565846599 160" height="160" width="212.3299565846599"><g><svg viewBox="0 0 212.3299565846599 160" height="160" width="212.3299565846599"><g id="textblocktransform"><svg viewBox="0 0 212.3299565846599 160" height="160" width="212.3299565846599" id="textblock"><g><svg viewBox="0 0 212.3299565846599 160" height="160" width="212.3299565846599"><g transform="matrix(1,0,0,1,0,0)"><svg width="212.3299565846599" viewBox="2.6 -34.25 45.85 34.55" height="160" data-palette-color="#ffffff"><path d="M33.15-7.85L33.15-7.85Q35.1-7.85 35.85-9.98 36.6-12.1 36.6-16.9L36.6-16.9 36.7-29.15Q36.7-31.8 37.93-33.02 39.15-34.25 42.15-34.25L42.15-34.25Q44-34.25 45.13-33.65 46.25-33.05 47.05-31.3 47.85-29.55 48.15-26.55 48.45-23.55 48.45-18.6L48.45-18.6Q48.45-15.65 47.95-13.1 47.45-10.55 46.6-8.65 45.75-6.75 44.58-5.23 43.4-3.7 42.1-2.7 40.8-1.7 39.35-1.03 37.9-0.35 36.52-0.08 35.15 0.2 33.85 0.2L33.85 0.2Q29.35 0.2 25.7-2.65L25.7-2.65Q22.1 0.3 17.55 0.3L17.55 0.3Q15.6 0.3 13.65-0.28 11.7-0.85 9.68-2.25 7.65-3.65 6.1-5.73 4.55-7.8 3.58-11.13 2.6-14.45 2.6-18.5L2.6-18.5Q2.6-25.05 3.23-28.4 3.85-31.75 5.13-32.95 6.4-34.15 8.85-34.15L8.85-34.15Q10.9-34.15 12.1-33.58 13.3-33 13.8-31.9 14.3-30.8 14.3-29.05L14.3-29.05 14.35-16.85Q14.35-12.05 15.1-9.9 15.85-7.75 18.05-7.75L18.05-7.75Q19.15-7.75 19.7-8.68 20.25-9.6 20.45-11.65L20.45-11.65Q19.8-14.55 19.8-20.7L19.8-20.7Q19.8-24.15 19.95-26.2 20.1-28.25 20.4-29.75 20.7-31.25 21.4-31.9 22.1-32.55 22.98-32.83 23.85-33.1 25.4-33.1L25.4-33.1Q26.3-33.1 26.98-33.05 27.65-33 28.25-32.75 28.85-32.5 29.25-32.3 29.65-32.1 30-31.55 30.35-31 30.55-30.6 30.75-30.2 30.93-29.3 31.1-28.4 31.18-27.73 31.25-27.05 31.28-25.73 31.3-24.4 31.33-23.43 31.35-22.45 31.35-20.65L31.35-20.65Q31.35-14.35 30.7-11.35L30.7-11.35Q30.9-9.55 31.45-8.7 32-7.85 33.15-7.85Z" opacity="1" transform="matrix(1,0,0,1,0,0)" fill="#ffffff" class="wordmark-text-0" data-fill-palette-color="primary" id="text-0"></path></svg></g></svg></g></svg></g></svg></g><g></g></svg></g></svg></g></svg></g></svg></g><defs></defs></svg><rect width="512" height="320" fill="none" stroke="none" visibility="hidden"></rect></g></svg></g></svg>